# xmcd CD database file generated by Grip 3.2.0
# 
# Track frame offsets:
#       150
#       13031
#       26766
#       42904
#       62430
#       79162
#       96257
#       112537
#       129584
#       146957
#       163513
#       179751
#       192189
#       210075
#       226370
#       244508
#       260653
#       276465
#       297616
#       316090
# 
# Disc length: 4458 seconds
# 
# Revision: 7
# Processed by: cddbd v1.5.2PL0 Copyright (c) Steve Scherf et al.
# Submitted via: Grip 3.2.0
# 
DISCID=1e116814
DTITLE=Various Artist - Hitbreaker 1.2005 [CD 1)
DYEAR=2004
DGENRE=Pop
TTITLE0=Eric Prydz - Call On Me
TTITLE1=BlueLagoon - Break My Stride
TTITLE2=Vanilla Ninja - When The Indians Cry
TTITLE3=Max Herre mit Joy Denalane - 1ste Liebe
TTITLE4=Fabrizio Faniello - I'm In Love (The Whistle Hit)
TTITLE5=Ana Johnsson - Don't Cry For Pain
TTITLE6=Captain Jack - Samba Brazil
TTITLE7=Danzel - Pump It Up!
TTITLE8=Virginia Jetzt! - Ein Ganzer Sommer - Germany 12 Points
TTITLE9=Zoe - Rock Steady
TTITLE10=Elli - Not My Type
TTITLE11=Maria Mena - You're The Only One
TTITLE12=Thom. - Principle Of Joy
TTITLE13=Ashana - U Gonna Get It
TTITLE14=Thomas Anders - Just Dream
TTITLE15=B3 - Can't Fight The Feeling
TTITLE16=Wonderwall - Touch The Sky
TTITLE17=Natural - Why It Hurts
TTITLE18=Die Toten Hosen - Ich bin die Sehnsucht in dir
TTITLE19=Aventura - Obsesión
EXTD=YEAR: 2004 ID3G: 29
EXTT0=
EXTT1=
EXTT2=
EXTT3=
EXTT4=
EXTT5=
EXTT6=
EXTT7=
EXTT8=
EXTT9=
EXTT10=
EXTT11=
EXTT12=
EXTT13=
EXTT14=
EXTT15=
EXTT16=
EXTT17=
EXTT18=
EXTT19=
PLAYORDER=
